<svg version="1.2" xmlns="http://www.w3.org/2000/svg" viewBox="0 0 148.6 120" width="200" height="161.0738255033557">
	<defs>
		<linearGradient id="g1" x2="1" gradientUnits="userSpaceOnUse" gradientTransform="matrix(7.414,0,0,12.799,39.256,56.469)">
			<stop offset="0" stop-color="#a9732a"/>
			<stop offset="1" stop-color="#bf8a3e"/>
		</linearGradient>
		<linearGradient id="g2" x2="1" gradientUnits="userSpaceOnUse" gradientTransform="matrix(13.2,0,0,18.62,39.874,57.836)">
			<stop offset="0" stop-color="#ad762d"/>
			<stop offset="1" stop-color="#be8c3f"/>
		</linearGradient>
		<linearGradient id="g3" x2="1" gradientUnits="userSpaceOnUse" gradientTransform="matrix(9.826,0,0,7.962,50.253,62.173)">
			<stop offset="0" stop-color="#ac772d"/>
			<stop offset="1" stop-color="#ca9944"/>
		</linearGradient>
		<linearGradient id="g4" x2="1" gradientUnits="userSpaceOnUse" gradientTransform="matrix(16.218,0,0,8.678,58.118,62.291)">
			<stop offset="0" stop-color="#bd873c"/>
			<stop offset="1" stop-color="#af7a30"/>
		</linearGradient>
		<linearGradient id="g5" x2="1" gradientUnits="userSpaceOnUse" gradientTransform="matrix(17.05,0,0,17.15,77.188,60.628)">
			<stop offset="0" stop-color="#ae772e"/>
			<stop offset="1" stop-color="#c18f41"/>
		</linearGradient>
		<linearGradient id="g6" x2="1" gradientUnits="userSpaceOnUse" gradientTransform="matrix(52.511,0,0,37.413,84.205,62.113)">
			<stop offset="0" stop-color="#c49343"/>
			<stop offset="1" stop-color="#b88436"/>
		</linearGradient>
		<linearGradient id="g7" x2="1" gradientUnits="userSpaceOnUse" gradientTransform="matrix(6.238,0,0,8.34,109.625,65.202)">
			<stop offset="0" stop-color="#bc893d"/>
			<stop offset="1" stop-color="#ab722a"/>
		</linearGradient>
		<linearGradient id="g8" x2="1" gradientUnits="userSpaceOnUse" gradientTransform="matrix(3.089,0,0,2.788,112.714,56.707)">
			<stop offset="0" stop-color="#ba893c"/>
			<stop offset="1" stop-color="#b68133"/>
		</linearGradient>
		<linearGradient id="g9" x2="1" gradientUnits="userSpaceOnUse" gradientTransform="matrix(11.406,0,0,8.031,112.833,65.143)">
			<stop offset="0" stop-color="#ac782f"/>
			<stop offset="1" stop-color="#bb883b"/>
		</linearGradient>
		<linearGradient id="g10" x2="1" gradientUnits="userSpaceOnUse" gradientTransform="matrix(13.486,0,0,15.718,123.111,64.905)">
			<stop offset="0" stop-color="#cc9e46"/>
			<stop offset="1" stop-color="#b68036"/>
		</linearGradient>
	</defs>
	<style>
		.s0 { fill: #c39240 } 
		.s1 { fill: #b68031;stroke: #b68031;stroke-miterlimit:10;stroke-width: .4 } 
		.s2 { fill: url(#g1) } 
		.s3 { fill: url(#g2) } 
		.s4 { fill: url(#g3) } 
		.s5 { fill: url(#g4) } 
		.s6 { fill: url(#g5) } 
		.s7 { fill: url(#g6) } 
		.s8 { fill: url(#g7) } 
		.s9 { fill: url(#g8) } 
		.s10 { fill: url(#g9) } 
		.s11 { fill: url(#g10) } 
	</style>
	<g id="Layer 1">
		<path class="s0" d="m36.49 46.73c-2.97-0.12-5.76-0.6-7.9-0.6-4.75-0.06-8.73 2.26-8.97 6.24 0.06 3.03 2.68 3.45 1.43 2.38-0.77-0.66-2.32-8.56 7.72-8.32l5.47 0.36 2.73-0.54z"/>
		<path class="s1" d="m37.33 46.96c-2.02 1.73-3.98 5.77-7.31 13.49 1.72 0.71 4.04 1.31 6.12 0.89l0.24 0.24c-2.08 0.53-4.64-0.18-6.42-0.77-2.61 5.34-5.59 12.29-12.12 12.29-4.22 0.36-7.01-2.14-6.83-6.12 0.12-4.21 3.98-9.03 10.22-8.97 2.49 0 4.93 0.84 7.36 1.91 2.62-5.23 5.11-10.52 7.96-12.78v-0.47h0.36c0.77-0.54 1.84-1.43 3.5-1.67 1.25-0.06 1.37 0.6 0.66 1.01-1.07 0.6-1.78 0.78-3.33 0.84zm-8.91 13.36c-1.78-0.77-4.57-1.78-7.07-1.78-4.28 0-9.21 2.85-9.98 7.84-0.3 3.45 1.37 6.36 4.99 6.42 5.47 0 8.26-5.35 12.06-12.48zm11.7-14.97c-0.65 0.12-1.3 0.3-2.19 1.07 0.65 0 1.48-0.06 2.07-0.24 1.13-0.53 0.9-0.95 0.12-0.83z"/>
		<path class="s2" d="m37.92 60.98c-1.07 2.8-1.6 4.99-0.24 4.99 1.43 0 3.15-1.42 5.11-5.22l0.24 0.17c-0.95 2.38-2.73 5.47-5.41 5.47-2.67 0-2.37-4.46 1.07-10.51 1.72-3.21 3.69-6.24 5.82-7.85 1.49-1.07 2.68-0.53 2.14 1.43-0.23 1.25-2.79 6.42-8.73 11.52zm0.12-0.71c3.74-3.27 7.9-8.79 8.26-11.23 0.17-1.01-0.48-1.54-1.67 0-1.54 1.79-4.04 6.12-6.59 11.23z"/>
		<path class="s3" d="m45.7 57.66l-1.48 3.32c1.07-1.42 2.25-3.03 3.5-3.03 1.25 0 1.84 1.31 1.07 3.21-0.77 2.02-2.32 4.4-1.66 4.76 0.71 0.35 2.26-0.84 3.74-3.39l0.24 0.12c-1.07 1.9-2.44 3.92-4.04 3.92-1.49 0-1.84-1.78-1.01-3.39 0.89-1.84 2.32-3.98 1.66-4.57-1.25-0.83-4.39 3.98-5.76 7.19l-0.3 0.35-1.78 0.24 2.79-5.47c2.32-4.69 4.16-8.91 6.89-11.7 2.8-2.85 4.7-2.26 3.63 0.77-0.72 1.9-3.03 5.59-7.49 7.67zm0.3-0.54c3.98-2.08 6.53-6.18 6.77-8.25 0-0.9-0.77-1.61-2.55 1.12-1.55 2.14-2.79 4.52-4.22 7.13z"/>
		<path class="s4" d="m56.63 59.38c0.6-1.43 1.07-1.19 2.56-1.43l-1.84 3.57c-1.67 3.27-1.79 4.16-0.89 4.45 0.89 0 2.43-1.6 3.92-4.39l0.23 0.18c-1.01 2.19-2.97 4.63-4.45 4.63-1.31 0.18-1.72-1.66-1.31-2.08-1.01 1.07-1.66 2.26-3.15 2.26-2.73 0-2.31-5.59 2.02-8.02 1.61-0.77 2.97-0.71 3.33 0.65zm-4.63 6.54c1.54 0.18 4.75-4.76 4.63-6.66-0.36-2.85-5.23 2.14-5.11 5.88 0.06 0.54 0.42 0.84 0.48 0.78z"/>
		<path class="s5" d="m63.17 58.07l-1.07 2.68c0.77-1.01 2.08-2.8 3.44-2.8 1.25 0 1.73 1.19 1.25 2.68 0.48-0.83 1.72-2.68 3.15-2.68 1.19 0 1.66 1.31 1.25 2.62-0.6 2.14-2.62 4.63-1.78 5.4 1.18 0.42 3.09-2.61 4.51-4.75l0.24 0.12c-0.42 1.37-2.62 5.23-4.64 5.23-1.48 0-1.9-1.66-1.18-3.27 0.59-1.48 2.55-4.34 1.96-4.69-1.73-0.83-4.64 4.93-5.88 7.31-0.42 0.47-0.84 0.41-2.02 0.59l2.97-5.94c0.29-0.77 0.65-1.72 0.17-1.96-1.3 0-2.91 2.14-5.52 7.19-0.42 0.71-0.59 0.47-1.96 0.77l3.44-7.43c0.54-1.07 0.78-0.89 2.26-1.07z"/>
		<path class="s6" d="m84.38 57.24l-0.54-0.24c-2.14 1.25-4.99 3.15-4.87 6.18 0.24 1.9 1.66 3.51 4.69 3.21 4.88-0.59 6.36-5.05 3.92-6.59-1.12-0.84-5.76 0.65-5.28 3.5 0.12 0.3-0.06 0.48-0.24 0.3-0.77-1.07 0.12-4.34 4.99-4.75 3.68-0.18 5.82 0 6.65-1.67 0.36-0.89-0.23-1.9-0.35-1.72l-0.06-0.42 0.18-0.06c0.71 0.06 1.66 2.2-0.18 3.63-1.01 0.95-3.33 0.83-5.17 0.83 2.2 1.31 1.84 6.71-4.93 7.54-2.91 0.18-4.69-0.41-5.7-2.19-0.96-1.96-0.6-5.23 5.1-7.73l0.66-0.29c-0.77-0.36-1.96-2.32-1.37-4.04 0.89-2.08 2.97-3.09 4.87-3.09 2.26 0 3.21 2.08 1.67 4.22-1.01 1.54-3.75 2.91-4.34 3.03zm-0.71-0.66h0.12c5.94-2.73 5.82-6.65 3.14-6.53-2.73 0.23-5.05 4.04-3.26 6.53z"/>
		<path class="s7" d="m102.2 52.61c-2.79 7.36-6.06 21.38-14.02 21.98-2.14 0.12-3.62-0.77-3.92-1.31-0.18-0.41 0.3-0.77 0.53-0.41 1.25 1.12 3.45 1.78 5.71 0.35 3.86-2.49 7.12-9.92 9.5-15.8l2.08-5.11c0.54-1.42 0.77-1.42 1.49-2.08 0.41-0.3 0.47 0.06 0.29 0.6-0.29 1.6 1.55 12.47 1.55 16.93 2.43-8.56 7.36-20.68 14.02-20.68 4.16 0 4.22 4.46 1.78 6.42-1.01 0.77-2.08 0.95-2.79 0.89-0.18 0-0.3-0.36 0.06-0.36 3.56 0 5.94-5.52 2.43-6.47-5.4-1.19-11.88 8.43-15.44 19.78-0.48 1.78-0.72 3.57-0.72 4.58l-0.17 0.29-0.18-0.12-0.36-3.03c-0.71-5.76-1.96-12.59-1.96-16.39z"/>
		<path class="s8" d="m114.26 60.92c-2.56 4.58-3.74 6.84-3.51 7.61 0.66 1.54 3.57-1.96 4.93-4.75l0.18 0.17c-0.59 1.43-2.37 5.17-4.69 5.29-1.43 0.06-1.78-1.48-1.37-2.97 0.42-1.13 1.55-3.15 2.32-4.75 0.48-0.54 0.77-0.48 2.14-0.6z"/>
		<path class="s9" d="m113.72 57.24c0.36-1.07 1.96-1.66 2.08-0.41-0.12 1.18-2.08 1.72-2.08 0.41z"/>
		<path class="s10" d="m117.29 63.9c0.95-1.19 2.43-3.09 3.56-2.98 0.95 0 1.43 1.01 1.19 2.08-0.41 1.96-2.61 4.88-1.78 5.47 0.95 0.3 2.73-1.78 3.98-4.46l0.18 0.18c-0.66 1.9-2.14 4.58-4.16 4.87-1.6 0.18-2.02-1.6-1.43-2.97 0.66-1.54 2.62-4.57 1.85-4.75-1.25-0.71-4.22 4.04-5.77 7.01-0.35 0.6-0.83 0.6-2.08 0.71l3.81-7.48c0.41-0.6 0.83-0.54 2.07-0.66z"/>
		<path class="s11" d="m130.6 60.98l1.3-0.17-2.14 4.15c-0.95 1.97-1.78 3.21-0.83 3.51 1.43 0 3.39-3.39 4.34-5.11 4.28-7.13 1.01-9.68-1.9-9.27-1.96 0.3-3.15 1.79-3.33 2.97 0 0.78-0.41 0.6-0.3 0 0-1.78 1.97-3.44 4.16-3.56 2.85 0 4.93 1.96 4.04 5.76-0.59 2.32-2.2 4.75-3.44 6.66-0.89 1.06-1.73 2.79-3.39 3.03-1.66 0.17-1.48-1.85-1.37-2.26-0.95 1.07-1.78 2.43-3.26 2.37-3.03-0.11-1.84-5.94 2.55-8.02 1.19-0.41 2.73-0.59 3.09 1.07zm-5.41 7.55c1.55 0.12 4.82-5.17 4.64-6.6-0.12-2.67-3.8 0.18-4.99 4.4-0.24 1.13-0.18 2.14 0.35 2.2z"/>
		<g>
		</g>
	</g>
</svg>