<svg version="1.2" xmlns="http://www.w3.org/2000/svg" viewBox="0 0 118.4 143.6" width="119" height="144">
	<style>
		.s0 { fill: #bc9d77;stroke: #bda07a;stroke-linecap: square;stroke-miterlimit:10;stroke-width: .4 } 
		.s1 { fill: #ba9a76 } 
	</style>
	<g id="Layer 1">
		<path class="s0" d="m66.5 34c-0.3 2.3-0.3 4.7-0.3 4.7 1.4-0.7 3.1-3 3.1-3z"/>
		<path class="s1" d="m66.8 31.2c-0.2 1.5 1 2.9 1.5 3.3 0.5 0.4 2 1.3 3.4 0.1l-0.6-0.6-1.3 0.5v-0.8l-1 0.6 0.5-1.3-1.2 0.7 0.6-1.6-0.8 0.6 0.1-1.2-0.7 0.9z"/>
		<path class="s1" d="m66.61 39c-1.1 6.2 0.3 14.2 0 20.9-0.3 8.9-3.01 16.5-3.51 20.9 0-1.8-0.5-2.9-1.5-4.3-1.7-2.7-5.09-7.5-6.69-8.6 0.9 1.8 5.99 8.1 6.29 8.6-1.3 2.7 1.4 4.6 1.4 8.2 0.5 7.8-6.5 17.3-10.01 27.1 0.21-6.4-1.59-12.9-1.79-17.3-1.3 1.2-3.6 1.5-3.6 1.5 0 0 2.7 2.2 3.4 5 1.6 6.4 1.4 9.8-0.01 16.8-2.99-7.4-16.79-17.9-28.79-23.51-4-1.6-9.2-3.2-9.1-3.7l5.4 2.6h-6.5v0.2h7l1.9 1.3h-8.5l0.3 0.3c2.6 0.1 9.1-0.7 11.2 0.9-4.6 0-9.1-0.4-10.9-0.3l0.1 0.3c4.8 0.4 11.1 0.1 13.8 2.1-2.2-0.3-10.7-1-13-0.6l14.3 1 2.1 1.1c-2.4-0.3-11.8-1.3-16-0.8l9.5 0.5c2.7 0.2 6.6 0.3 8.2 2l-16.8-0.8v0.3c3.8 0.5 16.7 0.3 19.1 2.01-4.6-0.41-13.5-1.31-18.1-0.71l0.3 0.3c4.8 0.4 14.8 0 18.3 2.11-4-0.71-13.3-1.01-17.4-0.81l0.4 0.3 12.4 0.6 5.8 0.71 1.3 0.7c-2.4-0.3-13.9-0.91-18-0.71l0.5 0.7c6.9 0.3 15.2-0.19 18.4 1.01v0.3c-5.7-0.31-11.7-0.51-17.3-0.51l1.1 0.7c4.8 0.2 13.2-0.19 16.8 0.51l0.5 0.5-15.9-0.51 1.5 0.7 15.3 0.31 0.8 0.5-13.1-0.41 1.8 0.7 11.5-0.29 0.2 0.3c-2.6 0.2-7.5 0.5-11 0.49 2.5 0.61 5.1 0.71 9.9 0.21l0.5-0.2c-5.01 2.1-18.51 1.19-25.5-8.51-3.5-4.5-4.6-11.2-10.5-13l-3.3-0.1-0.1-0.2c1.8-0.6 7.4-1.4 9.5-1.4 5.4-0.4 11.1 0 13.9 0.9 10.5 3.31 17 8.81 19.7 18.91-1.1-2.1-3.7-7.8-6.8-11.2l3.6 10-6.8-12.4 3.7 7.5-0.4-0.3c-1.3-1.7-2.1-5.9-4.3-8.5l3.2 8-0.5-0.2c-2-2.8-2.9-7.1-5.4-9.11l4 8.31-4.4-8.91c1.9 2.4 3.5 7.91 4.1 8.71l-6.1-8.71c2.3 3.2 3.4 6.7 4.4 8.41-1.4-1.21-4.1-7.41-7-10.01l4.6 8.5c-2-2.2-4.2-7.3-6.7-8.9l5.7 9-1.9-1.6-4.3-7.4 4.2 6.9-1.1-0.5c-0.1-0.9-2.8-5.7-4.4-7 0.9 1.6 3.6 6.5 3.8 7.5l-1-0.5-4.3-7.3 3.1 6.6c-1.6-0.3-3.7-6.1-6.5-6.8l4.5 6.5-5.5-6.5-0.5-0.2 0.4 0.2c1.6 0.2 4.9 4.8 5.8 6.6l-0.9-0.5c-4.6-4.6-6.4-6.1-7.6-6.1l3.8 3.5c-1.8-1.2-3.2-3-6.3-3.4 1.2 0.6 4.8 2.4 5.7 3.7-2.1-1-5-2.6-8.2-2.8 4 1.1 6.2 2 9.6 3.8 9.4 2.8 26.1 13.21 33.09 28.71-0.1 5.2-1.1 11.5-0.4 19.5l0.4 2.7 0.1-0.2c0-3.4 0.3-3.3 3-6l2.5-2.8c7.7-6 21.7-17.69 24.31-23.59-5.41 5.9-19.91 19.09-29.81 27.79-0.7-4.7-0.1-13.6 1.4-20.1 1.4-6 6.61-12.3 11.01-27.2 4.5-5 21-13.59 39-18.89l2.6-0.5c-1.8 0.5-2.5 0.5-3.2 0.9l3.1-0.4-4.7 0.8c-5.4 0.8-24.8 7.5-36.3 16.29 0.1-5.1 1.6-16.6 3.91-20.8 2.7-5.3 13-10.49 18.2-14.19v-0.1 0.1-0.1 0.1-0.1 0.1 0.2-0.2-0.1 0.1-0.1l-0.1 0.1 0.1-0.1v0.3-0.3 0.1-0.1 0.1-0.1l-0.1 0.3h0.1l0.1-0.3 1.1-0.2c0.2-0.4-1.9-1.2-3.2-2.8-2.7 6.1-11 8.49-14.6 14.09 0.4-1.3 2.1-4.2 1.4-4.7-1.4 1.6-2.3 4-2.8 6h-0.2c0.7-7-0.8-15.4-0.3-27.5l-0.5 0.1z"/>
		<path class="s1" d="m69.4 65.5l0.1 0.5z"/>
		<path class="s1" d="m67.1 23c-2.2-0.3-7.6-2.4-10.6-4.6-3.1-2-4 1.3-2.5 4.6 0.8 1.6 2.6 2.5 2.6 2.6 0.2 1 0.2 2 2 3.1 3.2 2.2 9 3.5 11.5 0.9 1.8-1.2 1.5-3.2 1.5-3.2-0.6 2.6-5.6 3.6-7.8 3.2 2-0.1 4.6-0.9 5.8-2.7-1.6 1.2-3.7 1.8-7.6 1.8 2.6-0.2 5.5-1.3 6.6-2.5-1.5 0.2-3.7 1-5.6 0.7 1.5-0.3 3.6-2 5.6-2.4-2.8 0.1-9.1 0.5-12.4-1.5 3.4 1.1 7.3 1.4 12.2 1-4.3-0.6-8.4 0-13.3-1.9 3.5 1.3 6.8 1.1 8.9 1.1-2-0.6-6.5-1.7-9-3.7 0.9-0.1 3.6 2.1 6.8 2.6-1.8-0.7-4.9-3.2-6.7-3.7 2 0 4.5 3.3 12 4.6z"/>
		<path class="s1" d="m58.4 5c-0.4-1.9 1.1-3.4 4.5-2.6 4.2 0.7 8.5 5.5 7.7 11.8l-0.6-3.6-2.5-4.2 1.5 3.5-0.9 0.7c0.4 1.8 0.5 3.9 0.9 4.9-1.5-2.5-2.4-7.4-3.4-9.6 1.7 4.2 2 6.7 2.8 9.8l-4.9-8.8 3.5 9.1-3.6-5.6 2.4 7.2-5.2-10.2 4.3 10.2c-2.5-2-4.5-7.1-5-7.4l3.2 5.9c-2.1-0.7-4-5.2-4.1-5.2l1.9 4.5 2.6 2.8-5.1-3.1c1 1.4 3 3.5 5 4.9-6-2.4-11.6-10.8-8-14.4 1.5-1.4 3-0.7 3-0.6zm2.6 2.2l-0.1 0.3 1.7 0.9zm2.4 0.8l0.5 1z"/>
		<path class="s1" d="m84 4.6c2-1.6 3.9-1.2 5.1 0.3 3.3 3.2 1 11.7-4.1 13.8 2.5-2.3 3.4-5.6 2.9-7.1l-1.4 3-3 3.9c0.9-2 2-4.3 2.3-7.8l-2.9 5.4 1.2-4-2.1 3.9 1-3.3h-0.2l0.4-0.7h-0.3v0.7l-2 3.4 0.9-3.7-2.2 1.6 1.8-5.9c-1.5 2.1-3.8 4.4-4.4 6.4 0.8-4.6 2-5.6 3.1-6.3-0.6 1-2.7 2.4-3 5.7-0.3-3.8 0.9-5.5 1.9-9-0.9 1.7-2.1 2.8-4 6.7 0-2.4 1.6-5.1 3.4-7.1-2 1.2-3.8 3.5-4.5 6.9 0.1-2.7 0.6-4.9 1.9-7.7-1.4 1.7-2.9 4-3.4 8-0.6-7 5.5-10.7 8.4-10 2.2 0.3 3.2 1.3 3.2 2.9zm-2.2 0.3c-2.3 0.8-4.2 3.6-4.7 5.5 1.4-1.3 2.5-4.5 4.7-5.5zm1.1 3.5l-2.8 5.7 0.4 0.1z"/>
		<path class="s1" d="m81.6 22.5c2.9-2.3 6.3-3.8 8.5-3.6 5.9-0.4 8.9 3.2 7.3 6.6l-0.9-0.1c2.9 0.1 3.6 3 1 5.1-3.5 2.7-9.9 3.5-15.5 0 9 2.6 11.1 0.5 13.5-0.5-2.4 0.9-7.9 2.1-13.6-0.5 4.6 0.1 7.5 0 10.9-1.6-2.2 0.6-4.2 1-8.9 0 2.7-0.2 5.7-0.8 7.7-3.3l-8.1 2c1.5-1.5 6.9-3.1 7.6-3.6-1.5 0.4-6.1 0.6-9.5 1.7 1.4-1.6 5.2-3.1 6.9-3.8-1.6 0.3-4.1 1-6.9 1.6z"/>
		<path class="s1" d="m73.4 26.1l6 0.3 1.5-0.4c-0.2-0.6 1.7-0.9 1.5 0 0.4 1.2-1.3 1.4-1.4 0.4-2.2 0.5-6.1 0.3-7.6-0.3zm0.7-0.2l3.7-0.8 3.3-1.5-3.2 1zm-0.5-0.3l3.8-1.5 2.1-1.6c0.5-1.4-0.5-1-0.5-0.1-1.2 0.2-4 2.8-5.4 3.2zm-0.7-0.6l2.1-1.8 3.1-3.5 0.5 1.8-2.5 1.5zm-0.3-0.4l4.2-5.6-0.3-1.1zm-0.6-0.2l2.6-5.4 0.5-1-2 3zm-0.6-0.4l1.5-6.4 0.1-0.4zm-0.4-0.4l0.9-6.7-0.8-0.5c-0.6 2.5-0.1 4.1-0.1 7.2zm-0.1 0.4c-1-4-0.9-7-0.4-7.6l-1-0.3 0.9-1.2 0.7 0.5c0.5 0.5 0 1.1-0.3 1.2-0.4 2.5-0.3 4.4 0.1 7.4z"/>
		<path class="s1" d="m72.1 25.9c0.8 1.3 2 1.8 3.8 2.1 2.7 1 4.1 3 8 5.4 1.6 1.1 3.7 2.2 2.5 3.7-1 0.8-3.2-0.2-4.6 0.3-5.4 1-10.3-4.8-9.7-9.7 0.3 2.3 1 5.3 2.8 6.9-1.3-2-2.3-4.6-2-6.9 0.2 1.7 1.7 5.9 4.6 8.9l-3.4-7.7 2.8 5.3 1.7 2.4-3.8-7.6 3.6 5.9 1.2 2-3.5-7.9 3 5.6-3-5.7 3.5 3.2-3.5-3.7 3.3 3.1-1.5-2.1 3.7 3.5-4.6-4.5c1 0.1 3.9 1.6 6.1 3.7 3.9 1.8 7.8 1.9 10.9 1.1 3.5-0.7 6.4-4.2 3.6-7.7h-2.6l-4.6 0.9h-6.8c1.5-0.9 6-2.9 7.3-3.4-1.9 0.1-6.8 0.6-9.3 2 3.4-2.9 6.3-4 9-5-3 0.4-8.2 2.4-9.1 3l0.5-0.5c-1.9 1.6-5.4 2.4-9 4.1"/>
		<path class="s1" d="m66 19.4l0.6-1 0.4 0.3 1 1.8 1 1.1-1.9-1.5-0.7-0.1z"/>
		<path class="s1" d="m72.4 12.1v0.5l1 0.4c1.6-0.4 0.5-2.3-1-0.9z"/>
		<path class="s1" d="m72.1 14l0.4 1.1 1.1-0.4v-0.8z"/>
		<path class="s1" d="m74.4 13.9l0.7 0.8 0.7-0.8-0.4-0.9-0.8 0.2z"/>
		<path class="s1" d="m75.4 16.9l-1.5 0.5-0.3-0.8 0.5-1z"/>
		<path class="s1" d="m72.9 17.7l-0.8 0.7-0.3-0.8 0.6-0.7z"/>
		<path class="s1" d="m76.8 18.6l-0.7-1.6-0.7-0.4 0.6-1 0.6-0.1 0.4 0.4z"/>
		<path class="s1" d="m77.1 18.1c0.3-0.6 0.4-2.1 1-1.1 0.8 0.6-0.2 0.6-1 1.1z"/>
		<path class="s1" d="m78.1 17.9l1.3-0.4 0.1 0.9h0.5l0.1 0.1-1.1 1-0.5-0.5 0.4-0.4z"/>
		<path class="s1" d="m78.5 15.9l-0.4-0.9 0.8-0.5 0.6 0.1 0.3 1z"/>
		<path class="s1" d="m80.6 17l0.8-0.3 0.7 0.3-0.5 0.7h-0.7z"/>
		<path class="s1" d="m81 20.9l0.4-1.3c1.4-0.4-0.3-1-1.4 0.6z"/>
		<path class="s1" d="m81.8 17l-0.4-0.4 0.1-0.1c1-1.5 2.1 0.6 0.3 0.5z"/>
		<path class="s1" d="m81.6 19.4l0.5-1h0.5v0.2l-0.1 1z"/>
		<path class="s1" d="m79.4 23.7l0.6-0.7 1-0.1 0.1 0.8-0.7 0.7z"/>
		<path class="s1" d="m63.8 6.2c1.6 1.4 3 2.8 3.8 8.8-0.2-2.9-1.1-6.5-3.8-8.8z"/>
		<path class="s1" d="m77 3.6c-1.6 1.3-2.9 3.1-3.6 7.8 0.2-2.4 1-5.7 3.6-7.8z"/>
		<path class="s1" d="m46.3 58.2c4.1-1.3 9-1.1 10.8-1.8 3.8 0.1 2.3 7.5-2.3 8.3l-0.3 2.2c-2.5 3.2-6.5 4.2-8 3.2-2.6-0.6-3.1-5.6-2.7-7.2-0.4 4.8-3.5 11.2-9.3 12.6-3.9 0.4-5-0.9-4.7-2.8-2.2 0.5-4.3-0.8-3.3-4.2 1-1.6 2.4-3 4.4-3.8 2.7-1.1 7.6-2.3 12.5-4.7-8.9 5.5-11.4 6.6-11 6.9l7.1-3.9-2 2.1 2.4-2.2 0.7 0.1-8.1 5.4 7.3-4.5-0.4 0.7 1.7-0.6-5.5 4.1 4-3-4.3 5.3 4.2-4.4-3.5 5.6c2.8-2.2 4.1-5.9 5.4-7.1l-3.3 7.9c3-3.8 3.4-6.9 5-8.9 0.3 2.5-1.7 7.7-5.1 10 3.6-2.4 5.4-5.9 5.5-10.1 1-2.8 1.3-3.4 2.8-5.2zm-1.8 0.5l-2 3.4 2.9-3.5zm2.1-0.2l7.3 2.4 3.6-0.3c-2.6 0-8.6-1.4-10.9-2.1zm2.3-0.3l5.2 1.4 3.4-0.2c-2.4-0.3-7.9-0.4-8.6-1.2zm0.1-0.3l5.9 0.3 2-0.6-2.4-0.1-4.4 0.1zm0.4 1.6l4.6 2 2.1 0.4c-2.1 0-5.5-2.4-6.7-2.4zm-0.6 0.4l3.6 2.6c1.7 0.9 2.6 1 4.5 0.5-4.1-0.1-6.3-3-8.1-3.1zm-0.8 0.3l3.4 3.3 3 0.9c-2.3-0.2-4.9-2.7-6.4-4.2zm-0.1 0.4c2.2 2.5 2.9 3.9 5.7 4.4-2.8-0.8-3.6-3.1-5.7-4.4zm-0.3 0.3l1.9 3.5 1.6 1.6c-2.1-1.4-2.6-3.8-3.5-5.1zm-0.5 0.6l1.4 3.5 2 1.6-2.1-2.7zm-0.6-0.4l0.5 3.1 2.5 3.5c-1.9-1-2.7-3.5-3-6.6zm-0.9 0.3l0.3 3.7 1.6 3.6 1.6-0.2c-2.2-0.8-3-4-3.5-7.1zm-0.6-0.3l-0.1 3.1 0.9 3.5c0.8 1.4 1.3 1.9 2.3 2.3-2.2-1.1-3-5.9-3.1-8.9z"/>
		<path class="s1" d="m43.4 31.4c-0.3-1.2 4.2-4.9 8 2.7 1.5 3.3 1.1 7.9-1.4 12 2.6-8.1 0.6-12.5-2-14 4.5 4.6 3 10.4 1 14.5 1.9-6.4 1.4-11.1-1.5-13.4 1.6 2.8 1.6 3.3 1.6 4.4l-1-2.4-2.5-2.8c3.2 4.1 4 9.1 1.9 14 0.4-3.4 0.5-7.7-0.9-10.2l-0.2 8.4-1-7.9 0.2 8.2-2.1-8.3 0.6 9-0.6-0.5-1.1-7.4c-0.5 1.8 0.5 6.7 0.1 6.9-0.7-1.2-1.6-5.1-2-7.1l0.9 6.9c-0.8-1.4-1.8-4.9-2.3-6.4l0.8 6.6-2.4-6.2 1 6.5-1.9-6.9 1 6.9-1.1-2.8-1.1-4.1 0.6 4.7 1.5 3.7c-3-3-3.9-12.8 1-15.5 2-0.9 4 0 4.9 0.5z"/>
		<path class="s1" d="m40 51.1l5 6.9c-1.9-1.4-5.4-4.1-6.6-4.9 0.1-1.1 1-0.5 4 2.9l2.1 2c-1.9-0.5-4.9-2-7.1-4l-0.8 0.6c1 1.4 5.3 3.4 7.4 4.3-3 0.1-6-0.9-8.6-1.2 0.2 1.2-1.5 1.2-1.3-0.3h0.9l5.4 1.1 3 0.4c-1.8-1-5.8-2.9-6.5-3.4l-0.8 0.6-0.6-0.1-0.1-0.5 0.5-0.5 0.6 0.1-0.5-1.1h-0.9l-0.5-0.1c-1.2-1.3-7.7-4.4-8.1-5 1.4-0.5 6.3 3.1 8.5 4.6l-0.4-0.8-2.8-2.2-3.4-2.1c2 0.1 4 1.7 6 3v-0.4c-1.5-1.5-3.3-3.3-5.9-4.3 2 0.2 4.6 2.3 6 4.4l0.1-0.4-1.2-1.8-3.3-2.5c1.9 0.6 3.7 2.6 5.4 4-1.5-3.7-7.5-7.4-12.6-4.9-3.5 1.4-3.5 4.4-2 6.2-4.8 0.8-2.8 7.8 5.7 10 3.8 0.8 6.2 0.9 11-1.1-6.2 0.8-10.5 1.3-14.6-1.7 4 2.1 6.5 3.1 12.4 1.5-3.5-0.4-7.6 0.6-12-2.4 2.6 0.9 5 2.5 10.4 1.5-3.2-0.6-7-0.9-10-4.1 2.8 2 5.8 3.3 9.8 2.6-2.6-0.6-6.2-1-9-4 3.9 2.4 5.9 3.4 8.9 3l-1.4-0.6-6.2-3.8 7.7 3.8 0.4-0.5-4-1.9-4.2-3.5 8.6 5 0.4-0.4c-2.3-1.4-7.4-5-8.2-6.2l5.8 3.5 2.1 2h0.1v-0.9"/>
		<path class="s1" d="m46.9 48.9l0.6 0.1c0.6 4.9 0 7-1.1 8.9 0.7-5 0.5-6.4 0.5-9z"/>
		<path class="s1" d="m47 47.2l1.4 0.8c-0.4 1.1-2.3 0.9-1.8-0.3z"/>
		<path class="s1" d="m44.5 45.5l1.5 0.5c-0.1 1.7-2.1 1.5-1.5-0.5z"/>
		<path class="s1" d="m43.1 47.9h1l0.4 0.7-0.4 0.8-0.7 0.1c-0.6-0.6-0.3-0.9-0.3-1.6z"/>
		<path class="s1" d="m41 49.6l1.9-0.5-0.4-1c-1 0.1-1.1 0.3-1.5 1.5z"/>
		<path class="s1" d="m41.1 45.5l1 0.4v0.8l-0.6 0.3-0.5-0.4z"/>
		<path class="s1" d="m40.1 46.5l-0.6 0.7v0.4z"/>
		<path class="s1" d="m38.5 44.9l0.5 0.6-0.5 1.1-1.1-0.7 0.7-0.8"/>
		<path class="s1" d="m35.5 47.6l1.5-0.2 0.1 0.7-0.6 0.8c-1 0.1-0.6-0.4-1-1.3z"/>
		<path class="s1" d="m35.4 51.9l0.5-0.8 0.6 0.9v1.1h-1z"/>
		<path class="s1" d="m36.5 50.5l0.9-0.6 1 0.5-1 1.1-0.8-0.6"/>
		<path class="s1" d="m38.5 49.7c1.6-1.7 3.5 0.9 2.5 1.2l-0.9-0.9v0.7l-0.7-0.8 0.1 0.8-1.1-0.3z"/>
		<path class="s1" d="m41.9 51.6l1-0.2 0.1 1.2 1.9 3.5-1.5-3.2z"/>
		<path class="s1" d="m43.5 49.6l3.1 7.3-1.7-7 0.6 0.3 1.1 6.7h-0.7z"/>
		<path class="s1" d="m49 54.6l1.5-1h0.9l0.4-0.5-0.9-0.7-0.8 1.2z"/>
		<path class="s1" d="m52.4 52l4.7-4 2.8-3.1c-2 0.8-5.5 4.6-7.8 7.1 2.3-2.4 3.7-5.1 3.4-6l-3.6 4.5c1.2-3.4 3.6-6.1 6.7-7.9-2.7 1-6 4.1-6.8 6.4 1.1-3.3 4-7 8.6-7.9-5.4 0.9-7.9 4.5-9.5 8 1-3.1 3-7.4 7.6-9.1-2.9 0.6-6.5 4.5-8.5 9l1.4-3.1c2.1-4.9 5-7.5 9-6.3 1.2 0.4 3.5 1.9 2.4 4.1 2.8 1.3 2.6 4.2 0.6 7.8-1.3 1.5-3.9 3.9-6.8 4 3.2-1.1 5.8-2.9 7-5.5l-5.6 4-3.6 1c1.7 0.5 5.5-1.3 7.7-3-2.1 1.6-5 3.5-7.5 3l2.3-0.8 4.9-3.7-7.3 3.9v-0.4l3.5-1.6 3.9-4-7.8 4.7v-0.2l2-0.9 5.5-3.9-6.6 3c2.1-1.5 4-3.5 4.9-5.6-1 1.4-3.4 4.1-7.5 6.5z"/>
		<path class="s1" d="m48 93c-1.4-0.8-2.5-6-3.6-6.6l3.4 7c-1.3-0.7-3.9-5-3.4-6.8l1.4 3.8c-1.8-1.3-1.9-4-2.2-5.9 0.3-2.4 3.9-3.1 6.3 0.4 1.6 0 3.1 1.2 2.6 4.6l-0.7 2.2-0.8 0.2-0.1-2.8c0-2.1-1.8-4.7-3.8-5.5 1.7 1.4 3.5 3.8 3.8 7.5-0.3-3.5-2-4.5-3.1-5.1 1.8 1.6 1.7 3.9 1.6 6.9l-1.9-4.5-2.4-2.3 2.9 6.8"/>
		<path class="s1" d="m45.4 93c-1.9-0.5-2.8-0.9-4-2.9l3.2 2.9-4.1-3.8c-1-2-0.4-3.2 0.4-4.1-1.5 3.6 1.1 6.6 4.1 7.8-3.1-0.5-6.4-3.9-5.5-7.2 0.9-1.7 2-1.7 3.4-1.2 0 2.1 0.5 6.6 2.5 8.5z"/>
		<path class="s1" d="m44.4 95c-3.5-0.6-5.6-1.6-5-5.1l0.5 0.1 2 3 2.5 1.5z"/>
		<path class="s1" d="m69.5 81.7c2-5.1 7-10.1 11.5-12.7 5.9-2.9 10-4.4 16.8-4.3 6.2 0 18.1 3.8 19.6 5.2v0.7c-3.4-1.2-8.5-0.7-10.8 3.3-3.5 5.1-5.8 8.8-12.5 11.2-7.1 1.9-16.1 2.3-19.7-0.7l14.2 2.1-4.7-1-9.4-1v-0.4l14.5 1.9 1.5-0.3-15-2.2 0.6-0.5c4 0.4 11.7 1.6 13.8 2.5l1.2-0.1c-4-1-11-2.5-14.7-2.5l1.1-0.7c3.9 0.2 11.1 1.9 14.1 3.3l1.4-0.1c-3.8-1-10.9-2.9-15.4-3.2l1-0.5c3.3 0.2 11.5 2.2 15.3 3.2l1.1-0.3-8.4-1.7-7.6-1 0.4-0.4c5.2 0 11.2 2.1 16.1 3l1-0.5-5.4-1.1c-1.5-0.5-6.7-1.5-11.1-1.7l0.5-0.5c5.9-0.3 12.6 2.3 16.9 3.4l0.5-0.2-6-1.7-4.4-1-8.1-0.7 0.5-0.1c4.2-0.9 12 1.7 17.5 3.3v-0.1l1.6-0.4c-3.9-1-11.6-3.5-17.9-3.2 3.5-1.9 13.3 1.2 18 2.7l0.9-0.6c-3.6-1-9.9-3.1-16.6-3.2 3-1.2 11.1 1.1 16.5 2.8l1-0.7-3.3-0.9-6.5-1.4-6.2-0.8h1.1l6.1 0.5 9 2.2 0.8-0.5c-4.5-1.2-12-2.7-16.8-2.7l1.5-0.4c4.3-0.4 10.8 1.1 15.5 2.5l0.8-0.8-6-1.2-6-0.9-4.4 0.3c3.5-1.2 7-0.5 16.6 1.5l0.5-0.7-4.7-1-4.3-0.6h-5.6c3.4-0.9 8.9-0.1 14.9 1.6l0.7-0.7c-4.2-0.9-6.5-1.6-11.6-2 3.1-0.4 8 0.7 11.4 1.7l0.6-0.6c-2-0.6-5.4-1.5-9.5-2v-0.4c3.5-0.3 5.6 1 9.4 1.8l0.5-0.5c-2.4-0.6-6.8-1.8-9-1.4l2-0.6 7 1.9 0.6-0.3-5.1-2 1.1-0.2 4.4 1.2 0.5-0.9-3.4-1.1c2.1 0 3.6 0.8 5.1 0.4-2.2-0.5-4.2-0.5-6.2-1-12.4 2.5-25.8 7.6-32.9 10.7z"/>
		<path class="s1" d=""/>
		<path class="s1" d=""/>
		<path class="s1" d=""/>
		<path class="s1" d="m88.1 41.7c-1 0.3-2.5 1.8-4 7.3 0.3-7 2.5-7.9 4.3-7.3l-2 2.9-1.5 4.5h-0.4l1.6-4.5v2.4l0.9-3.3 0.1 1.9 0.9-2.7 0.2 3.1c0.8-2.9 1.7-2.9 4.8-4.5"/>
		<path class="s1" d="m86.5 50l3.6-1.9 1.5-2.2c1.9-2.5 6-3.5 5.4 0.6l-1.9 4.2-3.7 1.7c-1.5 0.3-2.9-0.3-4.9-1.4l1.4-1.1 4.6-3.5-3.5 3.3"/>
		<path class="s1" d="m88.1 42.1c1.4-2.1 6.8-2.7 7.1 1.8-2.3-0.9-4.2 1.2-5.3 2.5-0.5 0.6-1.8 2.7-2.1 2.7l2.1-4 0.6-1.1-2.1 2.4-0.4 2.6h-0.5l2-5.1 0.5-0.9-1.9 1.6-0.7 3.4h-0.3v-2.9l0.3-2.1 0.5-1.3z"/>
		<path class="s1" d="m88.1 53.1c1.8 1.3 5.5 2 7.3 0.1 0.7-0.7 0.7-2.7-0.3-4.2-1.2 1.6-4.7 3.2-7.5 3"/>
		<path class="s1" d="m69.9 59.1c-2.4-4.6 1.7-8.4 5.1-8.9 0.4 5.8-1.9 9.7-3.6 9.3l1.2-1.3c0.4-1.1 0.8-2.3 0.4-3.3l-1 3 1.1-4-1.2 3.1 0.6-2.9-1.5 3.3 0.8-4.5-0.9 5.7-0.5-0.9 1.1-5.1-1.6 3v2.9z"/>
		<path class="s1" d="m69.5 129.9l-5.9 1.1c-1.7 0-2.1-0.3-2-0.4l5.4-0.5 3.4-0.6h0.1z"/>
		<path class="s1" d="m84.4 99v0.1-0.1-0.1c-2.9 5.1-6.8 6.7-9.4 7.8-11 3.9-16.4 10.8-17.4 21l0.4-0.3 0.6-3 4.3-10.4-3.8 12.2 0.8-0.7 0.7-3.1 3.5-9-3.6 12.1 0.9-1.1 0.1-1 3.9-11-3.5 12 0.7-0.5 3.3-12-3 12.2 0.6-0.5 1-3.9-0.4 4.3 1.4-4.3-0.6 3.9 4.1-13.1-2.4 9.5-0.1 1 2.6-7.1 1.4-4.9-6.4 15.1 5.5-14.6 0.4-0.1-3.9 11 3.4-8 1.5-3.8-6.5 12.8-0.1 2 5.5-14.8h0.6c-0.5 2.5-4.1 9.5-3.5 12.3l4.6-12.8 0.4-0.1c-0.9 2.6-3.5 9.4-3.9 11.9l0.5-2.9h0.5l-0.7 3.4 1.5-3.4v1.5l3.1-11.1h0.4c-0.9 2.5-3.4 8.6-3.4 11.2 1.4-1.5 3.1-6.7 3.1-8.9l1.3-2.6 0.1 0.3-1 2.8c0.1 1.3-1.9 6-2.5 6.7 1-0.8 2.4-3.8 2.4-4.8l0.5-1.7c0.7-0.8 0.7-2 1.2-3.3l0.9-0.1-0.6 2.6c-1 1.9-1.9 4.6-2.5 5.9 2.7-3.6 4.1-7.9 5-9.9h0.2c0 1.3-1.2 4.5-2.6 6.8l4.5-7.5 0.4 2.8 0.6-2.1 0.9 4.8 1.7-4.3c1-1.9 0.9-5 0.8-7.1zm-5.3 6.1l-1.6 4.3-3.6 4.7 1.6-3 1.4-2z"/>
		<path class="s1" d="m72.9 117.9c3-2.2 8.6-4.5 9.6-6.2v0.3c-1.9 2-7.6 4-9.6 5.9z"/>
		<path class="s1" d="m82.5 107l-7 6.6 6.9-6.9 0.1 0.2z"/>
		<path class="s1" d="m61.5 129.5l8.9-0.9 4.1-0.9-0.9 0.5c-3.6 1.2-10.1 2.2-12.2 1.8z"/>
		<path class="s1" d="m62 128.6l7-0.7 7.4-1.5-1 0.7-6 1.4-7.9 0.5z"/>
		<path class="s1" d="m62.9 127.6l6.6-1 8.6-2.2-1.1 1-4.9 0.7-2.6 0.9-7.1 1z"/>
		<path class="s1" d="m64 126.5c1.6-0.6 8.9-1.9 15.1-3.5l-1.2 1-3.9 0.6-10.5 2.3z"/>
		<path class="s1" d="m65 125.5l9.5-2.1 5.4-1.4-0.8 0.9-4.6 1-9.9 2.1z"/>
		<path class="s1" d="m66.6 124.4l8-1.8 5.8-2-0.5 0.9-4.5 1.4-9.4 1.8z"/>
		<path class="s1" d="m67.5 123.6l1.9-1.1 5.6-1.1 6.4-2.8-0.3 0.8-5.1 2-8.9 2.5z"/>
		<path class="s1" d="m68.6 122.5l2-1.1 4.5-1 6.8-2.8-0.4 0.8-4.4 1.6-8 2.5z"/>
		<path class="s1" d="m70 121.1l3-0.6 8.9-4-0.3 0.6-7 2.8-5.2 1.7z"/>
		<path class="s1" d="m72.5 119.1l6.6-3.1 3.3-1.9v0.5l-4 1.9-6.3 3z"/>
		<path class="s1" d="m71.4 119.4l6.6-3.3 4.4-2.6v0.6c-2.3 1.4-7.3 3.9-11 5.3z"/>
	</g>
</svg>