<svg xmlns="http://www.w3.org/2000/svg" viewBox="0 0 320 220" role="img" aria-label="bottom left floral ornament">
  <style>
    :root {
      --gold: #b88a2d;
      --soft: #f4e6c8;
    }
    .line {
      fill: none;
      stroke: var(--gold);
      stroke-width: 2.2;
      stroke-linecap: round;
      stroke-linejoin: round;
      stroke-dasharray: 760;
      stroke-dashoffset: 760;
      animation: draw 2.6s ease forwards;
    }
    .leaf {
      fill: var(--soft);
      fill-opacity: 0;
      stroke: var(--gold);
      stroke-width: 1.8;
      stroke-dasharray: 180;
      stroke-dashoffset: 180;
      animation: draw 2.4s ease forwards, fillLeaf 900ms ease forwards 1.4s;
    }
    .dot {
      fill: var(--gold);
      opacity: 0;
      animation: pop 600ms ease forwards 1.9s;
    }
    @keyframes draw {
      to {
        stroke-dashoffset: 0;
      }
    }
    @keyframes fillLeaf {
      to {
        fill-opacity: 0.82;
      }
    }
    @keyframes pop {
      to {
        opacity: 1;
      }
    }
  </style>
  <path class="line" d="M5 206h153c46 0 86-23 106-59" />
  <path class="line" d="M17 189c38-4 76-18 102-43 31-30 44-71 44-126" />
  <path class="line" d="M58 190c18-30 49-45 84-45" />
  <path class="line" d="M118 142c-29-10-51-32-66-66" />
  <path class="leaf" d="M75 170c-19-5-31-18-36-39 22 3 36 15 43 34-2 2-4 4-7 5Z" />
  <path class="leaf" d="M143 148c18 7 29 22 32 42-22-4-36-17-41-38 3-2 6-3 9-4Z" />
  <path class="leaf" d="M118 126c-20-7-32-23-34-45 22 5 36 19 42 40-3 2-5 4-8 5Z" />
  <path class="leaf" d="M160 84c22-8 39-3 55 14-21 11-40 7-58-9 1-2 2-4 3-5Z" />
  <path class="leaf" d="M73 76c-18-11-26-29-23-51 21 9 32 25 31 48-3 1-5 2-8 3Z" />
  <circle class="dot" cx="31" cy="156" r="4" />
  <circle class="dot" cx="99" cy="181" r="3" />
  <circle class="dot" cx="139" cy="107" r="3.5" />
  <circle class="dot" cx="188" cy="61" r="3" />
</svg>
